<svg xmlns="http://www.w3.org/2000/svg" xmlns:xlink="http://www.w3.org/1999/xlink" version="1.1" x="0px" y="0px" viewBox="0 0 100 125" enable-background="new 0 0 100 100" xml:space="preserve">
  <path fill="white" d="M73.736,96.197c-13.759,0-24.953-11.194-24.953-24.953s11.194-24.952,24.953-24.952s24.952,11.193,24.952,24.952 S87.495,96.197,73.736,96.197z M73.736,51.292c-11.002,0-19.953,8.95-19.953,19.952s8.951,19.953,19.953,19.953 s19.952-8.951,19.952-19.953S84.738,51.292,73.736,51.292z"/>
  <path fill="white" d="M73.736,85.901c-1.381,0-2.5-1.119-2.5-2.5s1.119-2.5,2.5-2.5c5.324,0,9.656-4.332,9.656-9.657c0-1.381,1.119-2.5,2.5-2.5 s2.5,1.119,2.5,2.5C88.393,79.326,81.817,85.901,73.736,85.901z"/>
  <path fill="white" d="M48.767,48.474c-0.64,0-1.279-0.244-1.768-0.732l-15.892-15.89c-0.977-0.977-0.977-2.56,0-3.536 c0.976-0.977,2.559-0.977,3.535,0l15.892,15.89c0.977,0.977,0.977,2.56,0,3.536C50.046,48.229,49.406,48.474,48.767,48.474z"/>
  <path fill="white" d="M63.033,42.097c-0.645,0-1.288-0.247-1.776-0.741L25.236,4.964c-0.971-0.981-0.963-2.564,0.018-3.536 c0.981-0.972,2.564-0.964,3.536,0.018l36.02,36.392c0.972,0.981,0.964,2.564-0.018,3.536C64.305,41.856,63.669,42.097,63.033,42.097 z"/>
  <path fill="white" d="M42.139,62.351c-0.644,0-1.288-0.247-1.777-0.741L2.035,22.889c-0.971-0.981-0.963-2.564,0.018-3.536 c0.981-0.972,2.564-0.962,3.536,0.018l38.327,38.721c0.971,0.981,0.963,2.564-0.018,3.535C43.41,62.109,42.774,62.351,42.139,62.351 z"/>
  <text x="0" y="115" fill="#000000" font-size="5px" font-weight="bold" font-family="'Helvetica Neue', Helvetica, Arial-Unicode, Arial, Sans-serif">Created by Andrey Vasiliev</text>
  <text x="0" y="120" fill="#000000" font-size="5px" font-weight="bold" font-family="'Helvetica Neue', Helvetica, Arial-Unicode, Arial, Sans-serif">from the Noun Project</text>
</svg>
